<svg xmlns="http://www.w3.org/2000/svg" width="41.78" height="35.344" viewBox="0 0 41.78 35.344">
  <defs>
    <style>
      .cls-1 {
        fill-rule: evenodd;
      }
    </style>
  </defs>
  <path id="Shape_173_copy_2" data-name="Shape 173 copy 2" class="cls-1" d="M1536.62,897.935a1.607,1.607,0,0,1,1.61,1.606v28.918a1.608,1.608,0,0,1-1.61,1.606h-35.34a1.606,1.606,0,0,1-1.6-1.606V899.541a1.605,1.605,0,0,1,1.6-1.606h35.34m0-1.607h-35.34a3.213,3.213,0,0,0-3.21,3.213v28.918a3.214,3.214,0,0,0,3.21,3.213h35.34a3.207,3.207,0,0,0,3.21-3.213V899.541a3.207,3.207,0,0,0-3.21-3.213h0Zm-23.64,8.033a3.13,3.13,0,0,1,2.37,1.109,2.879,2.879,0,0,1,.6,1.908,11.457,11.457,0,0,0-.16,3.089,2.569,2.569,0,0,0,.09.278,1.359,1.359,0,0,1-.05.821,2.941,2.941,0,0,1-.48,1.3l-0.31.362-0.06.472a5.64,5.64,0,0,1-.43,1.485,5.062,5.062,0,0,0-.55,2.116,2,2,0,0,0,1.31,2.2,24.125,24.125,0,0,1,5.13,2.539,5.326,5.326,0,0,1,.11,1.606h-16.04a5.865,5.865,0,0,1,.11-1.676,21.525,21.525,0,0,1,4.95-2.453,1.988,1.988,0,0,0,1.29-2.195,5.024,5.024,0,0,0-.38-2.142,5.952,5.952,0,0,1-.43-1.477l-0.06-.478-0.31-.364a2.873,2.873,0,0,1-.48-1.3,1.5,1.5,0,0,1-.06-0.783,2.789,2.789,0,0,0,.12-0.386,11.614,11.614,0,0,0-.18-3.025,2.9,2.9,0,0,1,.61-1.9,3.065,3.065,0,0,1,2.33-1.108h0.96m0.06-1.607-1.07,0a4.657,4.657,0,0,0-3.55,1.73,4.407,4.407,0,0,0-.92,3.174,11.272,11.272,0,0,1,.19,2.4,0.427,0.427,0,0,1-.04.112,2.722,2.722,0,0,0-.02,1.71,4.328,4.328,0,0,0,.83,2.033,7.206,7.206,0,0,0,.57,1.953,3.491,3.491,0,0,1,.23,1.461c0,0.609-.02.618-0.16,0.66a23.213,23.213,0,0,0-5.63,2.824c-0.78.524-.8,4.446,0.08,4.446h17.98c0.82,0,.88-3.848.02-4.409a25.616,25.616,0,0,0-5.78-2.881c-0.14-.046-0.17-0.052-0.17-0.662a3.549,3.549,0,0,1,.41-1.439,7.22,7.22,0,0,0,.56-1.953,4.415,4.415,0,0,0,.84-2.033,2.623,2.623,0,0,0-.03-1.71l-0.03-.107a11.084,11.084,0,0,1,.18-2.4,4.438,4.438,0,0,0-.91-3.174,4.681,4.681,0,0,0-3.58-1.732h0Zm21.98,4.82h-11.25v-1.607h11.25v1.607Zm0,4.819h-11.25v-1.606h11.25v1.606Zm0,4.82h-11.25v-1.607h11.25v1.607Z" transform="translate(-1498.06 -896.312)"/>
</svg>
