<?xml version="1.0" encoding="utf-8"?>
<!-- Generator: Adobe Illustrator 25.1.0, SVG Export Plug-In . SVG Version: 6.00 Build 0)  -->
<svg version="1.1" id="Layer_1" xmlns="http://www.w3.org/2000/svg" xmlns:xlink="http://www.w3.org/1999/xlink" x="0px" y="0px"
	 viewBox="0 0 48 48" style="enable-background:new 0 0 48 48;" xml:space="preserve">
<style type="text/css">
	.st0{fill:none;}
	.st1{fill:#FFFFFF;}
</style>
<g>
	<rect class="st0" width="48" height="48"/>
	<path id="chat" class="st1" d="M31,36.1H6.7c-1.9,0-3.5-1.5-3.5-3.5V8.5C3.2,6.6,4.7,5,6.7,5h34.6c1.9,0,3.5,1.5,3.5,3.5v24.2
		c0,1.9-1.5,3.5-3.5,3.5h-3.5V43L31,36.1z M5,8.5v24.2c0,1,0.8,1.7,1.7,1.7h25l0.5,0.5l3.9,3.9v-4.4h5.2c1,0,1.7-0.8,1.7-1.7V8.5
		c0-1-0.8-1.7-1.7-1.7H6.7C5.8,6.7,5,7.5,5,8.5z M29.2,20.6c0-1,0.8-1.7,1.7-1.7c1,0,1.7,0.8,1.7,1.7c0,1-0.8,1.7-1.7,1.7
		C30,22.3,29.2,21.5,29.2,20.6L29.2,20.6L29.2,20.6z M22.3,20.6c0-1,0.8-1.7,1.7-1.7c1,0,1.7,0.8,1.7,1.7c0,1-0.8,1.7-1.7,1.7
		C23,22.3,22.3,21.5,22.3,20.6L22.3,20.6L22.3,20.6z M15.5,20.6c0-1,0.8-1.7,1.7-1.7c1,0,1.7,0.8,1.7,1.7c0,1-0.8,1.7-1.7,1.7
		C16.3,22.3,15.5,21.5,15.5,20.6L15.5,20.6L15.5,20.6z"/>
</g>
</svg>
