<?xml version="1.0" encoding="utf-8"?>
<!-- Generator: Adobe Illustrator 25.1.0, SVG Export Plug-In . SVG Version: 6.00 Build 0)  -->
<svg version="1.1" id="Layer_1" xmlns="http://www.w3.org/2000/svg" xmlns:xlink="http://www.w3.org/1999/xlink" x="0px" y="0px"
	 viewBox="0 0 48 48" style="enable-background:new 0 0 48 48;" xml:space="preserve">
<style type="text/css">
	.st0{fill:none;}
	.st1{fill:#EF2626;}
	.st2{fill:#FFFFFF;}
</style>
<g>
	<rect class="st0" width="48" height="48"/>
	<circle id="Ellipse_4" class="st1" cx="39.5" cy="8.5" r="7.5"/>
	<g>
		<circle class="st2" cx="17.3" cy="20.6" r="1.7"/>
		<circle class="st2" cx="24" cy="20.6" r="1.7"/>
		<circle class="st2" cx="30.9" cy="20.6" r="1.7"/>
		<path class="st2" d="M43,32.6c0,0.9-0.7,1.7-1.7,1.7h-5.2v4.4l-3.9-3.9l-0.5-0.5h-25c-0.9,0-1.7-0.7-1.7-1.7V8.4
			c0-0.9,0.8-1.7,1.7-1.7h24c0.1-0.6,0.3-1.2,0.6-1.8H6.7c-2,0-3.5,1.6-3.5,3.5v24.2c0,2,1.6,3.5,3.5,3.5H31l6.8,6.9v-6.9h3.5
			c2,0,3.5-1.6,3.5-3.5V15.8c-0.6,0.4-1.2,0.8-1.8,1V32.6z"/>
	</g>
</g>
</svg>
