<?xml version="1.0" encoding="utf-8"?>
<!-- Generator: Adobe Illustrator 25.1.0, SVG Export Plug-In . SVG Version: 6.00 Build 0)  -->
<svg version="1.1" id="Layer_1" xmlns="http://www.w3.org/2000/svg" xmlns:xlink="http://www.w3.org/1999/xlink" x="0px" y="0px"
	 viewBox="0 0 48 48" style="enable-background:new 0 0 48 48;" xml:space="preserve">
<style type="text/css">
	.st0{fill:none;}
	.st1{fill:#EBC77F;}
</style>
<g>
	<rect class="st0" width="48" height="48"/>
	<path id="chat_s" class="st1" d="M37.8,43L37.8,43L31,36.1H6.7c-1.9,0-3.5-1.5-3.5-3.5V8.5C3.2,6.6,4.7,5,6.7,5h34.6
		c1.9,0,3.5,1.5,3.5,3.5v24.2c0,1.9-1.5,3.5-3.5,3.5h-3.5V43L37.8,43z M30.9,18.9c-1,0-1.7,0.8-1.7,1.7s0.8,1.7,1.7,1.7
		c1,0,1.7-0.8,1.7-1.7l0,0C32.6,19.6,31.9,18.9,30.9,18.9L30.9,18.9z M24,18.9c-1,0-1.7,0.8-1.7,1.7c0,1,0.8,1.7,1.7,1.7
		c1,0,1.7-0.8,1.7-1.7C25.7,19.6,25,18.9,24,18.9L24,18.9z M17.3,18.9c-1,0-1.7,0.8-1.7,1.7c0,1,0.8,1.7,1.7,1.7
		c1,0,1.7-0.8,1.7-1.7C19,19.6,18.2,18.9,17.3,18.9L17.3,18.9z"/>
</g>
</svg>
