<svg id="Group_29_copy_4" data-name="Group 29 copy 4" xmlns="http://www.w3.org/2000/svg" width="90" height="90" viewBox="0 0 90 90">
  <defs>
    <style>
      .cls-1 {
        fill-opacity: 0;
        stroke: #e1c79b;
        stroke-linejoin: round;
        stroke-width: 2px;
      }

      .cls-1, .cls-2, .cls-3 {
        fill-rule: evenodd;
      }

      .cls-2, .cls-3 {
        fill: #e1c79b;
      }

      .cls-2 {
        opacity: 0.2;
      }
    </style>
  </defs>
  <path id="Shape" class="cls-1" d="M474.37,850.845h0a7.215,7.215,0,0,0,7.214-7.215v-30.3H467.155v30.3a7.216,7.216,0,0,0,7.215,7.215h0Z" transform="translate(-464 -764)"/>
  <path id="Shape-2" data-name="Shape" class="cls-1" d="M481.584,843.63V770.041a2.885,2.885,0,0,1,2.886-2.886h63.489a2.885,2.885,0,0,1,2.886,2.886V843.63a7.216,7.216,0,0,1-7.215,7.215H474.37a7.215,7.215,0,0,0,7.214-7.215h0Z" transform="translate(-464 -764)"/>
  <path id="Shape-3" data-name="Shape" class="cls-2" d="M488.8,801.785h23.087V774.37H488.8v27.415h0Z" transform="translate(-464 -764)"/>
  <path id="Shape-4" data-name="Shape" class="cls-2" d="M520.543,801.785H543.63V774.37H520.543v27.415h0Z" transform="translate(-464 -764)"/>
  <path id="Shape-5" data-name="Shape" class="cls-3" d="M511.886,810.443H488.8a1.443,1.443,0,0,1,0-2.886h23.087a1.443,1.443,0,0,1,0,2.886h0Z" transform="translate(-464 -764)"/>
  <path id="Shape-6" data-name="Shape" class="cls-3" d="M511.886,817.658H488.8a1.443,1.443,0,0,1,0-2.886h23.087a1.443,1.443,0,0,1,0,2.886h0Z" transform="translate(-464 -764)"/>
  <path id="Shape-7" data-name="Shape" class="cls-3" d="M511.886,824.872H488.8a1.443,1.443,0,0,1,0-2.886h23.087a1.443,1.443,0,0,1,0,2.886h0Z" transform="translate(-464 -764)"/>
  <path id="Shape-8" data-name="Shape" class="cls-3" d="M511.886,832.087H488.8a1.443,1.443,0,0,1,0-2.886h23.087a1.443,1.443,0,0,1,0,2.886h0Z" transform="translate(-464 -764)"/>
  <path id="Shape-9" data-name="Shape" class="cls-3" d="M511.886,839.3H488.8a1.443,1.443,0,1,1,0-2.886h23.087a1.443,1.443,0,0,1,0,2.886h0Z" transform="translate(-464 -764)"/>
  <path id="Shape-10" data-name="Shape" class="cls-3" d="M543.63,810.443H520.543a1.443,1.443,0,0,1,0-2.886H543.63a1.443,1.443,0,1,1,0,2.886h0Z" transform="translate(-464 -764)"/>
  <path id="Shape-11" data-name="Shape" class="cls-3" d="M543.63,817.658H520.543a1.443,1.443,0,0,1,0-2.886H543.63a1.443,1.443,0,0,1,0,2.886h0Z" transform="translate(-464 -764)"/>
  <path id="Shape-12" data-name="Shape" class="cls-3" d="M543.63,824.872H520.543a1.443,1.443,0,0,1,0-2.886H543.63a1.443,1.443,0,0,1,0,2.886h0Z" transform="translate(-464 -764)"/>
  <path id="Shape-13" data-name="Shape" class="cls-3" d="M543.63,832.087H520.543a1.443,1.443,0,1,1,0-2.886H543.63a1.443,1.443,0,0,1,0,2.886h0Z" transform="translate(-464 -764)"/>
  <path id="Shape-14" data-name="Shape" class="cls-3" d="M543.63,839.3H520.543a1.443,1.443,0,1,1,0-2.886H543.63a1.443,1.443,0,0,1,0,2.886h0Z" transform="translate(-464 -764)"/>
  <path id="Shape-15" data-name="Shape" class="cls-3" d="M497.456,846.516H488.8a1.443,1.443,0,1,1,0-2.886h8.657a1.443,1.443,0,0,1,0,2.886h0Z" transform="translate(-464 -764)"/>
  <path id="Shape-16" data-name="Shape" class="cls-3" d="M534.973,846.516h-14.43a1.443,1.443,0,0,1,0-2.886h14.43a1.443,1.443,0,1,1,0,2.886h0Z" transform="translate(-464 -764)"/>
</svg>
