<svg xmlns="http://www.w3.org/2000/svg" width="18.5" height="19.688" viewBox="0 0 18.5 19.688">
  <defs>
    <style>
      .cls-1 {
        fill-rule: evenodd;
      }
    </style>
  </defs>
  <path id="Shape_1_copy_9" data-name="Shape 1 copy 9" class="cls-1" d="M493.339,627.339H476.662a0.926,0.926,0,0,1-.927-0.927V621.78h1.853v3.706h14.824V621.78h1.853v4.632A0.926,0.926,0,0,1,493.339,627.339Zm-3.051-10.847a0.926,0.926,0,0,0-1.31,0l-3.051,3.051V608.588a0.927,0.927,0,0,0-1.853,0v10.955l-3.051-3.051a0.926,0.926,0,1,0-1.31,1.31l4.631,4.632a0.928,0.928,0,0,0,1.312,0l4.632-4.632A0.926,0.926,0,0,0,490.288,616.492Z" transform="translate(-475.75 -607.656)"/>
</svg>
