<?xml version="1.0" encoding="utf-8"?>
<!-- Generator: Adobe Illustrator 25.1.0, SVG Export Plug-In . SVG Version: 6.00 Build 0)  -->
<svg version="1.1" id="Layer_1" xmlns="http://www.w3.org/2000/svg" xmlns:xlink="http://www.w3.org/1999/xlink" x="0px" y="0px"
	 viewBox="0 0 48 48" style="enable-background:new 0 0 48 48;" xml:space="preserve">
<style type="text/css">
	.st0{fill:none;}
	.st1{fill:#FFFFFF;}
</style>
<g>
	<rect class="st0" width="48" height="48"/>
	<path id="exp" class="st1" d="M13.6,42.4c-2.6-1.4-3.2-5.8-1.9-11.3C10.1,30.6,8.5,30,7,29.2c-2.6-1.5-4.2-3.3-4.2-5.3
		c0-2.9,3.4-5.5,8.6-7.1c-1.3-5.3-0.8-9.6,1.7-11c1.7-1,3.9-0.6,6.5,0.8c1.5,0.9,2.9,1.9,4.2,3.1c4-3.9,8-5.6,10.5-4.2
		c2.6,1.5,3.2,5.8,1.9,11.3c1.6,0.5,3.2,1.1,4.7,1.9c2.6,1.5,4.2,3.3,4.2,5.3c0,2.9-3.4,5.5-8.6,7.1c1.3,5.3,0.8,9.6-1.7,11.1
		c-1.7,1-3.9,0.6-6.5-0.8c-1.5-0.9-2.9-1.9-4.2-3.1c-3.1,2.9-6.1,4.7-8.5,4.7C14.9,43,14.2,42.8,13.6,42.4z M14.4,40.9
		c1.7,1,4.9-0.5,8.4-3.8c-1.4-1.4-2.6-2.9-3.8-4.5c-1.9-0.2-3.8-0.5-5.7-0.9C12.3,36.4,12.7,39.9,14.4,40.9z M29.1,39.8
		c2,1.1,3.7,1.4,4.7,0.8c1.3-0.8,1.8-3.3,1.3-6.7c-0.1-0.8-0.3-1.5-0.4-2.3c-1.9,0.5-3.8,0.8-5.8,1c-1.1,1.6-2.3,3.1-3.6,4.5
		C26.5,38.1,27.7,39.1,29.1,39.8z M24,35.8c0.9-1,1.8-2,2.6-3.1c-0.9,0-1.8,0.1-2.7,0.1c-0.9,0-1.7,0-2.5-0.1
		C22.2,33.8,23.1,34.8,24,35.8L24,35.8z M23.9,31c1.4,0,2.7-0.1,4-0.2c0.7-1.1,1.4-2.2,2.1-3.4c0.7-1.2,1.3-2.4,1.8-3.5
		c-0.6-1.2-1.2-2.3-1.9-3.5c-0.7-1.1-1.4-2.2-2.1-3.3C26.5,17,25.2,17,23.9,17c-1.4,0-2.7,0.1-4,0.2c-0.7,1.1-1.4,2.2-2.1,3.4
		c-0.7,1.2-1.3,2.4-1.8,3.5c0.6,1.2,1.2,2.3,1.9,3.5c0.7,1.1,1.4,2.2,2.1,3.3C21.3,31,22.6,31,23.9,31L23.9,31z M31.6,28.3
		c-0.4,0.8-0.9,1.6-1.4,2.3c1.4-0.2,2.7-0.4,4-0.8c-0.4-1.3-0.9-2.6-1.4-3.9C32.4,26.8,32,27.5,31.6,28.3L31.6,28.3z M17.7,30.6
		c-0.5-0.7-0.9-1.4-1.3-2.1c-0.5-0.8-0.9-1.5-1.3-2.3c-0.5,1.3-0.9,2.5-1.3,3.7C15.1,30.2,16.4,30.5,17.7,30.6L17.7,30.6z M9.6,19.4
		c-3.2,1.3-5.1,3-5.1,4.6c0,1.2,1.2,2.5,3.3,3.7c1.4,0.7,2.8,1.3,4.3,1.8c0.5-1.8,1.2-3.6,1.9-5.3c-0.8-1.8-1.6-3.7-2.1-5.6
		C11.1,18.8,10.3,19.1,9.6,19.4L9.6,19.4z M35.9,29.4c4.5-1.4,7.3-3.4,7.4-5.4c0-1.2-1.2-2.6-3.3-3.7c-1.4-0.7-2.8-1.3-4.3-1.8
		c-0.5,1.8-1.2,3.6-1.9,5.3C34.6,25.7,35.3,27.5,35.9,29.4L35.9,29.4z M15,22c0.4-0.8,0.8-1.5,1.2-2.3c0.5-0.8,0.9-1.6,1.4-2.3
		c-1.4,0.2-2.7,0.4-4,0.8C14,19.4,14.5,20.7,15,22L15,22z M31.5,19.5c0.5,0.8,0.9,1.5,1.3,2.3c0.5-1.2,0.9-2.4,1.3-3.7
		c-1.3-0.3-2.6-0.5-3.9-0.7C30.6,18.1,31,18.8,31.5,19.5L31.5,19.5z M14,7.3c-1.7,1-2,4.5-0.9,9.1c1.9-0.5,3.8-0.8,5.8-1
		c1.1-1.6,2.3-3.1,3.6-4.5c-1.2-1.1-2.4-2-3.8-2.8c-1-0.7-2.2-1-3.4-1.1C14.8,7,14.4,7.1,14,7.3L14,7.3z M34.4,16.4
		c1.1-4.8,0.7-8.3-1.1-9.3s-4.9,0.5-8.4,3.8c1.4,1.4,2.6,2.9,3.8,4.5C30.7,15.6,32.6,15.9,34.4,16.4L34.4,16.4z M21.2,15.3
		c0.9,0,1.8-0.1,2.7-0.1s1.7,0,2.5,0.1c-0.8-1.1-1.7-2.1-2.7-3.1C22.9,13.2,22,14.2,21.2,15.3L21.2,15.3z"/>
</g>
</svg>
