<?xml version="1.0" encoding="utf-8"?>
<!-- Generator: Adobe Illustrator 25.1.0, SVG Export Plug-In . SVG Version: 6.00 Build 0)  -->
<svg version="1.1" id="Layer_1" xmlns="http://www.w3.org/2000/svg" xmlns:xlink="http://www.w3.org/1999/xlink" x="0px" y="0px"
	 viewBox="0 0 150 150" style="enable-background:new 0 0 150 150;" xml:space="preserve">
	<defs><style>path {fill: #fff; }</style></defs>
<path d="M120,3H30C15.1,3,3,15.1,3,30v90c0,14.9,12.1,27,27,27h32.9V95.2H46V74.6h16.8V58.4c0-17.6,10.4-27.2,25.7-27.2
	c7.3,0,13.6,0.6,15.4,0.8v18.4H93.4c-8.3,0-9.9,4.1-9.9,10v14.2h18.7l-2.6,20.6H83.5V147H120c14.9,0,27-12.1,27-27V30
	C147,15.1,134.9,3,120,3z"/>
</svg>
