<?xml version="1.0" encoding="utf-8"?>
<!-- Generator: Adobe Illustrator 25.1.0, SVG Export Plug-In . SVG Version: 6.00 Build 0)  -->
<svg version="1.1" id="Layer_1" xmlns="http://www.w3.org/2000/svg" xmlns:xlink="http://www.w3.org/1999/xlink" x="0px" y="0px"
	 viewBox="0 0 48 48" style="enable-background:new 0 0 48 48;" xml:space="preserve">
<style type="text/css">
	.st0{fill:none;}
	.st1{fill:#FFFFFF;}
</style>
<g>
	<rect class="st0" width="48" height="48"/>
	<path id="gallery" class="st1" d="M6.1,41c-2,0-3.6-1.6-3.6-3.6l0,0V10.6c0-2,1.6-3.6,3.6-3.6l0,0h35.8c2,0,3.6,1.6,3.6,3.6v26.8
		c0,2-1.6,3.6-3.6,3.6H6.1z M41.9,39.2c1,0,1.8-0.8,1.8-1.8v-4.6L31.2,20.3L19.9,31.5l7.7,7.7H41.9z M4.3,10.6v26.8
		c0,1,0.8,1.8,1.8,1.8H25L13.3,27.4l-8.9,8.9v-2.5l8.9-8.9l5.4,5.4l0,0l12.5-12.5l12.5,12.5V10.6c0-1-0.8-1.8-1.8-1.8H6.1
		C5.1,8.8,4.3,9.6,4.3,10.6L4.3,10.6z M9.7,16c0-2,1.6-3.6,3.6-3.6s3.6,1.6,3.6,3.6s-1.6,3.6-3.6,3.6C11.3,19.5,9.7,17.9,9.7,16
		L9.7,16L9.7,16z"/>
</g>
</svg>
