<?xml version="1.0" encoding="utf-8"?>
<!-- Generator: Adobe Illustrator 25.1.0, SVG Export Plug-In . SVG Version: 6.00 Build 0)  -->
<svg version="1.1" id="Layer_1" xmlns="http://www.w3.org/2000/svg" xmlns:xlink="http://www.w3.org/1999/xlink" x="0px" y="0px"
	 viewBox="0 0 32 32" style="enable-background:new 0 0 32 32;" xml:space="preserve">
<style type="text/css">
	.st0{fill:#FFFFFF;}
</style>
<path id="AST:home" class="st0" d="M13.4,29.2V20h5.3v9.2H13.4z M21.3,29.2v-2.6h2.6V13.9L16,6l-7.9,7.9v12.6h2.6v2.6h-4
	c-0.7,0-1.3-0.6-1.3-1.3V16.5l-0.4,0.4c-0.5,0.5-1.3,0.5-1.9,0s-0.5-1.3,0-1.9l0,0L15.1,3.2c0.5-0.5,1.3-0.5,1.9,0c0,0,0,0,0,0
	l11.9,11.9c0.5,0.5,0.5,1.4,0,1.9c-0.5,0.5-1.3,0.5-1.8,0l-0.4-0.4v11.3c0,0.7-0.6,1.3-1.3,1.3L21.3,29.2z"/>
</svg>
