<?xml version="1.0" encoding="utf-8"?>
<!-- Generator: Adobe Illustrator 25.1.0, SVG Export Plug-In . SVG Version: 6.00 Build 0)  -->
<svg version="1.1" id="Layer_1" xmlns="http://www.w3.org/2000/svg" xmlns:xlink="http://www.w3.org/1999/xlink" x="0px" y="0px"
	 viewBox="0 0 150 150" style="enable-background:new 0 0 150 150;" xml:space="preserve">
<g>
	<path d="M120.8,52.2c-1.2-26-20.8-23.4-45.8-23.4l-0.2-0.1c-15,0-16.8,0.1-22.8,0.3c-26,1.3-23.3,20-23.3,45.9
		c0,19.2-1.4,31.8,6.5,39.6c6.9,6.9,16.3,6.5,39.7,6.5c22.8,0,32.6,0.6,39.7-6.5c7-7,6.5-16.5,6.5-39.6
		C121.1,60,121.1,58.2,120.8,52.2z M75,103.9c-15.9,0-28.9-12.9-28.9-28.9C46.1,59,59.1,46.1,75,46.1C91,46.1,103.9,59,103.9,75
		C103.9,90.9,91,103.9,75,103.9z M105,51.7c-3.7,0-6.7-3-6.7-6.7c0-3.7,3-6.8,6.7-6.8c3.7,0,6.8,3,6.8,6.8
		C111.8,48.7,108.8,51.7,105,51.7z"/>
	<path d="M120,3H30C15.1,3,3,15.1,3,30v90c0,14.9,12.1,27,27,27h90c14.9,0,27-12.1,27-27V30C147,15.1,134.9,3,120,3z M130.9,98.2
		c-0.8,16.7-8.6,26.1-19.1,30.1c-7.7,3-15.2,3-36.8,3c-21.1,0-35.9,1.4-46.8-9.4c-10.7-10.7-9.4-24.9-9.4-46.8
		c0-21.4-1.4-36,9.4-46.8c6.5-6.5,14.5-8.7,23.6-9.1c10.4-0.5,36-0.5,46.4,0c21.2,1,31.8,13,32.7,32.7
		C131.4,62.2,131.4,87.8,130.9,98.2z"/>
	<path d="M75,56.2c-10.4,0-18.7,8.4-18.7,18.7S64.7,93.7,75,93.7c10.4,0,18.8-8.4,18.7-18.7C93.8,64.6,85.4,56.2,75,56.2z"/>
</g>
<defs><style>path {fill: #fff; }</style></defs>
</svg>
