<?xml version="1.0" encoding="utf-8"?>
<!-- Generator: Adobe Illustrator 25.2.3, SVG Export Plug-In . SVG Version: 6.00 Build 0)  -->
<svg version="1.1" id="Layer_1" xmlns="http://www.w3.org/2000/svg" xmlns:xlink="http://www.w3.org/1999/xlink" x="0px" y="0px"
	 viewBox="0 0 80 80" style="enable-background:new 0 0 80 80;" xml:space="preserve">
<style type="text/css">
	.st0{fill:none;}
</style>
<g>
	<rect y="0" class="st0" width="80" height="80"/>
	<g>
		<path d="M69,46.5c-0.1-0.1-0.1-0.1-0.2-0.2L62.5,40l6.3-6.3c0.9-1,0.8-2.5-0.2-3.4c-0.9-0.8-2.3-0.8-3.2,0l-6.3,6.3l-6.3-6.3
			c-1-0.9-2.5-0.8-3.4,0.2c-0.8,0.9-0.8,2.2,0,3.1l6.3,6.3l-6.3,6.3c-1,0.8-1.2,2.3-0.3,3.4s2.3,1.2,3.4,0.3
			c0.1-0.1,0.3-0.2,0.4-0.4l6.3-6.3l6.3,6.3c0.9,1,2.4,1.1,3.4,0.2C69.8,49,69.9,47.4,69,46.5z"/>
		<path d="M37.1,10.9c-0.8,0-1.6,0.3-2.2,0.9L17.6,27H9c-1.7,0-3.1,1.3-3.2,3v20c0,1.7,1.5,3.1,3.2,3h8.8l17,15
			c1.5,1.3,3.7,1.2,5.1-0.3c0.6-0.7,0.9-1.5,0.9-2.4v-51C40.7,12.5,39,10.9,37.1,10.9z"/>
	</g>
</g>
</svg>
