<?xml version="1.0" encoding="utf-8"?>
<!-- Generator: Adobe Illustrator 25.1.0, SVG Export Plug-In . SVG Version: 6.00 Build 0)  -->
<svg version="1.1" id="Layer_1" xmlns="http://www.w3.org/2000/svg" xmlns:xlink="http://www.w3.org/1999/xlink" x="0px" y="0px"
	 viewBox="0 0 48 48" style="enable-background:new 0 0 48 48;" xml:space="preserve">
<style type="text/css">
	.st0{fill:none;}
	.st1{fill:#FFFFFF;}
</style>
<g>
	<rect class="st0" width="48" height="48"/>
	<g>
		<path class="st1" d="M11.6,14.9l0.9,0c0.9,0.1,1.7,0.4,2.3,1.1c0.4,0.6,0.6,1.3,0.6,1.9c-0.2,1-0.2,1.9-0.1,2.7l0,0
			c0,0.1,0.1,0.1,0,0.3l0,0c0,0,0,0,0,0.1c0,0.1,0,0.3-0.1,0.8c-0.1,0.5-0.2,0.9-0.4,1.2l-0.3,0.3l-0.1,0.4
			c-0.1,0.5-0.2,0.9-0.4,1.4c-0.2,0.5-0.4,1.1-0.4,1.9c0,0.5,0,1.5,1.1,1.9c0.2,0.1,0.5,0.2,0.9,0.3l0,0l0,0
			c0.2-0.1,0.5-0.2,0.7-0.3c0.2-0.1,0.5-0.2,0.7-0.3l0.3-0.1L17,28.4c-0.6-0.3-1.2-0.5-1.9-0.7c0,0,0,0,0,0c0,0,0-0.2,0-0.5
			c-0.1-0.4,0.1-0.9,0.2-1.3c0.3-0.7,0.5-1.3,0.5-1.8c0.4-0.6,0.7-1.2,0.7-1.9c0.2-0.5,0.2-1.1,0-1.6l0,0c0,0,0,0,0,0
			c0-0.7,0.1-1.5,0.2-2.2c0.1-1.1-0.2-2.2-0.8-3c-0.9-1.1-2.1-1.7-3.3-1.7h-1c-1.4,0.1-2.6,0.7-3.4,1.7c-0.7,0.9-1,2-0.8,3
			c0.1,0.7,0.2,1.5,0.2,2.2v0c-0.1,0.5-0.1,1,0,1.6c0.1,0.7,0.3,1.4,0.8,1.9c0.1,0.7,0.3,1.3,0.5,1.8C8.9,26,9.1,26.5,9.1,27
			c0,0.3,0,0.4,0,0.5c0,0,0,0,0,0c-2,0.7-3.8,1.6-5.4,2.7c-0.7,0.5-0.8,2.6-0.5,3.7c0.1,0.4,0.3,0.6,0.5,0.6h8.1v-0.1
			c0-0.4,0-0.8,0.1-1.2l0-0.1H4.5c-0.1-0.6,0-1.3,0.1-1.7c1.3-0.9,2.8-1.7,4.7-2.5c0.8-0.3,1.2-1.1,1.1-1.9c0-0.6-0.2-1.3-0.5-1.9
			c-0.2-0.4-0.3-0.9-0.4-1.4l-0.1-0.3L9.3,23c-0.2-0.3-0.4-0.7-0.4-1.2c-0.1-0.6-0.1-0.7,0-0.8l0-0.1c0-0.1,0-0.1,0-0.1
			c0,0,0-0.1,0-0.1c0.1-1.1,0-2-0.1-2.7c-0.1-0.7,0.1-1.3,0.5-1.9C9.9,15.3,10.7,14.9,11.6,14.9z"/>
		<path class="st1" d="M44.4,30.3c-1.7-1.1-3.5-2-5.4-2.6c0,0,0,0,0,0c0,0,0-0.2,0-0.5c0-0.5,0.2-1,0.3-1.3c0.3-0.7,0.5-1.3,0.5-1.8
			c0.4-0.6,0.7-1.2,0.7-1.9c0.2-0.5,0.2-1,0-1.6v0c0-0.7,0.1-1.5,0.2-2.2c0.1-1.1-0.2-2.2-0.8-3c-0.8-1.1-2.1-1.7-3.4-1.7h-1
			c-1.4,0.1-2.5,0.6-3.3,1.7c-0.7,0.9-1,2-0.8,3c0.1,0.7,0.2,1.4,0.2,2.2c0,0.1-0.1,0.1-0.1,0.2c-0.1,0.5-0.1,1,0,1.6
			c0.1,0.7,0.3,1.4,0.8,1.9c0.1,0.7,0.3,1.3,0.5,1.8c0.1,0.4,0.2,0.8,0.2,1.3c0,0.3,0,0.4,0,0.5c0,0,0,0,0,0
			c-0.6,0.2-1.2,0.5-1.9,0.7l-0.3,0.1l0.3,0.1c0.5,0.2,0.9,0.4,1.4,0.7l0.1,0l0.1,0c0.3-0.2,0.6-0.2,0.7-0.3l0.1,0
			c1.1-0.3,1.1-1.3,1.1-1.9c0-0.8-0.1-1.3-0.3-1.9c-0.2-0.5-0.3-0.9-0.4-1.4l-0.1-0.4l-0.3-0.3c-0.2-0.3-0.4-0.7-0.4-1.2
			c-0.1-0.5-0.1-0.7-0.1-0.8c0,0,0,0,0,0c0,0,0,0,0-0.1c0-0.1,0.1-0.2,0.1-0.3C33,20,33.1,19,32.8,18c-0.1-0.6,0.2-1.3,0.6-1.9
			c0.6-0.7,1.4-1.1,2.3-1.1l0.9,0c0.9,0.1,1.7,0.5,2.3,1.1c0.4,0.6,0.6,1.3,0.6,1.9c-0.2,1-0.2,1.9-0.1,2.7c0,0.1,0,0.2,0.1,0.2
			c0,0,0,0,0,0v0.1l0,0c0.1,0.1,0,0.5,0,0.8c-0.1,0.5-0.2,0.9-0.4,1.2l-0.2,0.3l-0.1,0.4c-0.1,0.5-0.2,0.9-0.4,1.4
			c-0.3,0.6-0.5,1.3-0.5,1.9c-0.1,0.8,0.3,1.6,1.1,1.9c1.8,0.6,3.4,1.5,4.8,2.4c0.1,0.5,0.2,1,0.1,1.7h-7.4l0,0.1
			c0.1,0.4,0.1,0.8,0.1,1.2v0.1l7.8,0.1c0.2,0,0.4-0.2,0.5-0.6C45.1,32.9,45,30.7,44.4,30.3z"/>
		<path class="st1" d="M28.2,28.3c-0.1,0-0.1,0-0.1-0.6c0.1-0.7,0.2-1.2,0.5-1.6c0.3-0.7,0.5-1.5,0.6-2.2c0.5-0.7,0.8-1.5,0.9-2.3
			c0.2-0.7,0.2-1.4,0-2l0,0c0,0,0,0,0,0v0c-0.1-0.8,0.1-1.7,0.2-2.7c0.1-1.4-0.2-2.7-1-3.7c-1.1-1.3-2.6-2-4.2-2h-1.2
			c-1.6,0-3.1,0.7-4.2,2c-0.8,1.1-1.2,2.4-1,3.7c0.1,0.9,0.2,1.7,0.2,2.6c-0.1,0.1-0.1,0.1-0.1,0.2c-0.2,0.7-0.2,1.4,0,2
			c0.1,0.8,0.5,1.6,1,2.3c0.2,0.9,0.4,1.6,0.7,2.2c0.2,0.5,0.3,1,0.3,1.6c0,0.6,0,0.6-0.1,0.6c-2.3,0.7-4.5,1.8-6.5,3.2
			c-0.8,0.5-0.9,3.4-0.5,4.6c0.2,0.5,0.4,0.7,0.7,0.7l20.5-0.1c0.3,0,0.5-0.2,0.6-0.7c0.4-1.3,0.3-4-0.5-4.5
			C32.8,30.3,30.6,29.2,28.2,28.3z M22.2,27.7c0-0.8-0.1-1.5-0.4-2.2c-0.3-0.6-0.5-1.3-0.5-1.9l-0.1-0.4L20.9,23
			c-0.4-0.6-0.6-1.2-0.7-1.7c-0.2-0.9-0.1-1-0.1-1.1c0,0,0-0.1,0-0.1c0-0.1,0.1-0.2,0.1-0.3c0.1-1.1,0-2.1-0.2-3.2
			c-0.1-0.9,0.2-1.9,0.8-2.6c0.7-0.9,1.8-1.4,3-1.4l1.1-0.1c1.2,0,2.4,0.6,3.1,1.4c0.6,0.7,0.9,1.6,0.8,2.5
			c-0.2,1.1-0.3,2.2-0.2,3.3c0,0.1,0,0.2,0.1,0.2c0,0,0,0,0,0l0,0.1c0.1,0.2,0.1,0.4,0,1.2c-0.1,0.5-0.3,1.1-0.7,1.7l-0.2,0.3
			l-0.1,0.4c-0.1,0.6-0.2,1.2-0.5,1.9c-0.4,0.7-0.6,1.5-0.6,2.2c0,0.7,0,1.6,1.2,2c2.2,0.8,4.3,1.8,6.1,3c0.2,0.8,0.3,1.7,0.1,2.6
			H15c-0.2-0.9-0.1-1.8,0.1-2.7c1.6-1.2,3.6-2.1,5.9-2.9C22.2,29.4,22.2,28.4,22.2,27.7z"/>
	</g>
</g>
</svg>
