<?xml version="1.0" encoding="utf-8"?>
<!-- Generator: Adobe Illustrator 25.1.0, SVG Export Plug-In . SVG Version: 6.00 Build 0)  -->
<svg version="1.1" id="Layer_1" xmlns="http://www.w3.org/2000/svg" xmlns:xlink="http://www.w3.org/1999/xlink" x="0px" y="0px"
	 viewBox="0 0 32 32" style="enable-background:new 0 0 32 32;" xml:space="preserve">
<style type="text/css">
	.st0{fill:#FFFFFF;}
</style>
<path id="AST:notifications" class="st0" d="M13.9,27.4h4.2c0,1.1-0.9,2.1-2.1,2.1C14.9,29.5,13.9,28.6,13.9,27.4z M4.1,26.4v-1.7
	l3.1-2.9v-8.3c0-4.3,3.1-7.9,7.3-8.7V3.5c0-0.6,0.5-1,1-1c0,0,0,0,0,0h1c0.6,0,1,0.5,1,1v1.2c4.2,0.7,7.3,4.4,7.3,8.7v8.3l3.1,2.9
	v1.7L4.1,26.4z"/>
</svg>
