<?xml version="1.0" encoding="utf-8"?>
<!-- Generator: Adobe Illustrator 25.1.0, SVG Export Plug-In . SVG Version: 6.00 Build 0)  -->
<svg version="1.1" id="Layer_1" xmlns="http://www.w3.org/2000/svg" xmlns:xlink="http://www.w3.org/1999/xlink" x="0px" y="0px"
	 viewBox="0 0 48 48" style="enable-background:new 0 0 48 48;" xml:space="preserve">
<style type="text/css">
	.st0{fill:none;}
	.st1{fill:#FFFFFF;}
</style>
<g>
	<rect class="st0" width="48" height="48"/>
	<path id="qmin_cafe" class="st1" d="M39.7,42.2l-5.1-5.1c-0.2-0.2-0.2-0.5,0-0.8l0,0l0.3-0.3c3.4-3.1,5.4-7.6,5.5-12.2
		c0-9.1-7.3-16.4-16.4-16.4S7.6,14.7,7.6,23.8l0,0c0,0.5,0,1,0.1,1.5c0.5,5.7,4,10.8,9.2,13.3c2.5,1.2,5.3,1.7,8.1,1.4
		c0.5-0.1,0.9-0.2,1.3-0.4c1.6-0.6,2.9-1.8,3.5-3.4c0.5-1.3,0.5-2.8-0.2-4.1c-0.8-1.6-2.2-2.8-4-3.3l-1.4-0.3l3.8-5.2
		c0.2-0.2,0.1-0.6-0.1-0.7c-0.1-0.1-0.2-0.1-0.3-0.1h-6.9c-0.3,0-0.5-0.2-0.5-0.5v-0.8c0-0.3,0.2-0.5,0.5-0.5h10.4
		c0.3,0,0.5,0.3,0.5,0.6c0,0.1,0,0.2-0.1,0.3l-4.4,6c1.7,0.8,3.1,2.1,3.9,3.8c0.9,1.8,1,3.8,0.2,5.7c-0.9,2-2.6,3.6-4.6,4.4
		c-0.3,0.1-0.5,0.2-0.8,0.2l0,0c-3.5,0.9-7.5-0.3-9.9-1.4c-5.8-2.8-9.7-8.4-10.3-14.8c-0.1-0.6-0.1-1.1-0.1-1.7
		c0-10.1,8.2-18.3,18.3-18.3s18.3,8.2,18.3,18.3c-0.1,4.6-1.9,9.1-5,12.5c-0.2,0.2-0.2,0.5,0,0.7l3.8,3.7c0.2,0.2,0.2,0.5,0,0.8l0,0
		l-0.6,0.6C40.3,42.4,39.9,42.4,39.7,42.2L39.7,42.2z"/>
</g>
</svg>
