<?xml version="1.0" encoding="utf-8"?>
<!-- Generator: Adobe Illustrator 25.1.0, SVG Export Plug-In . SVG Version: 6.00 Build 0)  -->
<svg version="1.1" id="Layer_1" xmlns="http://www.w3.org/2000/svg" xmlns:xlink="http://www.w3.org/1999/xlink" x="0px" y="0px"
	 viewBox="0 0 48 48" style="enable-background:new 0 0 48 48;" xml:space="preserve">
<style type="text/css">
	.st0{fill:#EBC77F;}
	.st1{fill:none;}
</style>
<g>
	<path class="st0" d="M2.4,5.9v36.3h43.2V5.9H2.4z M4.1,7.5h5.2v5.2H4.1V7.5z M4.1,14.4h5.2v5.2H4.1V14.4z M4.1,21.4h5.2v5.2H4.1
		V21.4z M4.1,28.4h5.2v5.2H4.1V28.4z M9.4,40.4H4.2v-5.2h5.2V40.4z M34.4,24.9H13.2v-2h21.3V24.9z M43.9,40.4h-5.2v-5.2h5.2V40.4z
		 M43.9,33.6h-5.2v-5.2h5.2V33.6z M43.9,26.7h-5.2v-5.2h5.2V26.7z M43.9,19.8h-5.2v-5.2h5.2V19.8z M43.9,12.9h-5.2V7.6h5.2V12.9z"/>
	<rect class="st1" width="48" height="48"/>
</g>
</svg>
