<?xml version="1.0" encoding="utf-8"?>
<!-- Generator: Adobe Illustrator 25.1.0, SVG Export Plug-In . SVG Version: 6.00 Build 0)  -->
<svg version="1.1" id="Layer_1" xmlns="http://www.w3.org/2000/svg" xmlns:xlink="http://www.w3.org/1999/xlink" x="0px" y="0px"
	 viewBox="0 0 48 48" style="enable-background:new 0 0 48 48;" xml:space="preserve">
<style type="text/css">
	.st0{fill:none;}
	.st1{fill:#FFFFFF;}
</style>
<g>
	<rect class="st0" width="48" height="48"/>
	<path class="st1" d="M2.4,5.9v36.3h43.2V5.9H2.4z M37,7.6v15.6H11V7.6H37z M4.1,7.6h5.2v5.2H4.1V7.6z M4.1,14.6h5.2v5.2H4.1V14.6z
		 M4.1,21.5h5.2v5.2H4.1V21.5z M4.1,28.4h5.2v5.2H4.1V28.4z M4.1,40.5v-5.2h5.2v5.2H4.1z M11,40.5V25h26v15.5H11z M43.9,40.5h-5.2
		v-5.2h5.2V40.5z M43.9,33.6h-5.2v-5.2h5.2V33.6z M43.9,26.6h-5.2v-5.2h5.2V26.6z M43.9,19.8h-5.2v-5.2h5.2V19.8z M43.9,12.9h-5.2
		V7.6h5.2V12.9z"/>
</g>
</svg>
