<?xml version="1.0" encoding="utf-8"?>
<!-- Generator: Adobe Illustrator 25.1.0, SVG Export Plug-In . SVG Version: 6.00 Build 0)  -->
<svg version="1.1" id="Layer_1" xmlns="http://www.w3.org/2000/svg" xmlns:xlink="http://www.w3.org/1999/xlink" x="0px" y="0px"
	 viewBox="0 0 150 150" style="enable-background:new 0 0 150 150;" xml:space="preserve">
<path d="M120,3H30C15.1,3,3,15.1,3,30v90c0,14.9,12.1,27,27,27h90c14.9,0,27-12.1,27-27V30C147,15.1,134.9,3,120,3z M108.4,57.9
	c0,0.7,0.1,1.5,0.1,2.2c0,22.8-17.4,49.1-49.1,49.1c-9.8,0-18.8-2.8-26.5-7.7c1.4,0.2,2.7,0.2,4.1,0.2c8.1,0,15.5-2.8,21.4-7.4
	c-7.5-0.2-13.9-5.2-16.1-12c1,0.2,2.2,0.3,3.3,0.3c1.6,0,3.1-0.2,4.5-0.6c-7.8-1.6-13.8-8.6-13.8-17c0-0.1,0-0.1,0-0.2
	c2.3,1.3,5,2.1,7.8,2.1c-4.6-3.1-7.7-8.4-7.7-14.3c0-3.2,0.9-6.1,2.4-8.7C47.3,54.4,60,61.3,74.3,62c-0.3-1.3-0.4-2.6-0.4-3.9
	c0-9.5,7.7-17.3,17.2-17.3c4.9,0,9.4,2.1,12.6,5.5c3.9-0.8,7.6-2.2,10.9-4.2c-1.3,4-4,7.4-7.6,9.5c3.5-0.4,6.8-1.4,9.9-2.7
	C114.7,52.4,111.9,55.4,108.4,57.9z"/>
	<defs><style>path {fill: #fff; }</style></defs>
</svg>
