<?xml version="1.0" encoding="utf-8"?>
<!-- Generator: Adobe Illustrator 25.2.3, SVG Export Plug-In . SVG Version: 6.00 Build 0)  -->
<svg version="1.1" id="Layer_1" xmlns="http://www.w3.org/2000/svg" xmlns:xlink="http://www.w3.org/1999/xlink" x="0px" y="0px"
	 viewBox="0 0 80 80" style="enable-background:new 0 0 80 80;" xml:space="preserve">
<style type="text/css">
	.st0{fill:none;}
</style>
<g>
	<rect y="0" class="st0" width="80" height="80"/>
	<g>
		<path d="M37.1,10.9c-0.8,0-1.6,0.3-2.2,0.9L17.6,27H9c-1.7,0-3.1,1.3-3.2,3v20c0,1.7,1.5,3.1,3.2,3h8.8l17,15
			c1.5,1.3,3.7,1.2,5.1-0.3c0.6-0.7,0.9-1.5,0.9-2.4v-51C40.7,12.5,39,10.9,37.1,10.9z"/>
		<path d="M62.4,65.9c-0.6,0-1.2-0.2-1.6-0.6c-0.5-0.4-0.8-1-0.8-1.7c0-0.6,0.2-1.1,0.6-1.6c5.6-5.9,8.7-13.8,8.7-22.1
			c0-8.1-3.1-15.9-8.8-22c-0.8-1-0.8-2.4,0.1-3.3c0.4-0.4,1-0.6,1.5-0.6c0.6,0,1.2,0.3,1.7,0.7c6.4,6.7,10,15.6,10.2,25.1
			c0,9.4-3.6,18.4-10.1,25.1C63.5,65.6,62.9,65.9,62.4,65.9z"/>
		<path d="M55.4,59.9c-0.6,0-1.2-0.2-1.6-0.6c-0.4-0.4-0.7-0.9-0.7-1.5c0-0.6,0.2-1.2,0.7-1.7c4.2-4.2,6.5-9.9,6.5-16
			c0-6-2.3-11.6-6.5-16c-0.9-0.8-0.9-2.2,0-3.2c0.4-0.5,1-0.7,1.6-0.7c0.6,0,1.2,0.3,1.6,0.7c5.1,5.4,7.8,12,7.8,19.1
			c0,7.3-2.7,14-7.8,19.2C56.5,59.6,55.9,59.9,55.4,59.9z"/>
		<path d="M48.5,53.9c-0.7,0-1.3-0.2-1.7-0.6c-0.4-0.4-0.7-0.9-0.7-1.5c0-0.6,0.2-1.2,0.7-1.7C49.5,47.3,51,43.8,51,40
			s-1.5-7.3-4.2-10.1c-0.9-0.8-0.9-2.2,0-3.2c0.4-0.5,1-0.7,1.6-0.7c0.6,0,1.2,0.3,1.6,0.7c3.7,3.7,5.7,8.4,5.7,13.3
			c0,5.1-1.9,9.8-5.5,13.3C49.7,53.7,49.1,53.9,48.5,53.9z"/>
	</g>
</g>
</svg>
