<?xml version="1.0" encoding="utf-8"?>
<!-- Generator: Adobe Illustrator 25.1.0, SVG Export Plug-In . SVG Version: 6.00 Build 0)  -->
<svg version="1.1" id="Layer_1" xmlns="http://www.w3.org/2000/svg" xmlns:xlink="http://www.w3.org/1999/xlink" x="0px" y="0px"
	 viewBox="0 0 150 150" style="enable-background:new 0 0 150 150;" xml:space="preserve">
<g>
	<path d="M62.3,145.8c3.5,0.6,7.1,1,10.7,1.1v-33c-9,0.1-18,1.1-26.5,2.9c3.7,11.1,9.1,21,16,28.8L62.3,145.8z"/>
	<path d="M113.9,73H147c-0.5-16.9-6.8-32.4-17-44.5c-6.6,3.2-13.8,5.7-21.4,7.5C111.9,47.6,113.7,60.3,113.9,73z"/>
	<path d="M77,39.9V73h33c-0.2-12.4-1.9-24.8-5.3-36.1C95.8,38.7,86.4,39.7,77,39.9z"/>
	<path d="M73,110.1V77H40c0.2,12.4,1.9,24.8,5.3,36.1C54.3,111.2,63.6,110.2,73,110.1z"/>
	<path d="M62.3,4.1l0.2,0.2c-7,7.8-12.3,17.7-16,28.8C55.1,34.9,64,35.9,73,36V3C69.4,3.1,65.8,3.5,62.3,4.1z"/>
	<path d="M36.1,77h-33c0.5,16.9,6.8,32.4,17,44.5c6.6-3.1,13.8-5.6,21.3-7.5C38.1,102.7,36.2,90.2,36.1,77z"/>
	<path d="M3.1,73h33c0.2-13,2.1-25.6,5.4-37c-7.6-1.8-14.8-4.4-21.4-7.5C9.8,40.5,3.5,56,3.1,73z"/>
	<path d="M73,39.9c-9.4-0.1-18.8-1.1-27.7-3C41.9,48.2,40.2,60.5,40,73h33V39.9z"/>
	<path d="M3,74.9C3,74.9,3,74.9,3,74.9C3,75,3,75,3,75.1V74.9z"/>
	<path d="M147,77h-33.1c-0.2,12.7-2,25.4-5.4,37c7.6,1.8,14.8,4.4,21.4,7.5C140.2,109.4,146.5,93.9,147,77z"/>
	<path d="M74.9,147C75,147,75,147,74.9,147c0.1,0,0.1,0,0.2,0H74.9z"/>
	<path d="M87.7,4.1C84.3,3.5,80.7,3.1,77,3v33c9-0.1,18-1.1,26.5-2.9c-3.7-11.1-9.1-21-16-28.8L87.7,4.1z"/>
	<path d="M42.7,32.3C46.1,22,50.7,12.8,56.4,5.4c-13,3.5-24.6,10.5-33.6,20C29,28.3,35.7,30.6,42.7,32.3z"/>
	<path d="M107.4,117.7c-3.3,10.1-7.9,19.3-13.8,26.9c13-3.5,24.6-10.5,33.6-20C121.1,121.7,114.4,119.4,107.4,117.7z"/>
	<path d="M42.6,117.7c-7,1.7-13.6,4-19.7,6.8c9,9.5,20.6,16.5,33.6,20C50.6,137,46,127.9,42.6,117.7z"/>
	<path d="M110.1,77H77v33.1c9.4,0.1,18.8,1.1,27.7,3C108.1,101.8,109.9,89.4,110.1,77z"/>
	<path d="M107.4,32.3c7-1.7,13.7-4,19.8-6.9c-9-9.5-20.6-16.5-33.6-20C99.5,13,104.1,22.2,107.4,32.3z"/>
	<path d="M77,146.9c3.6-0.1,7.2-0.5,10.7-1.1l-0.2-0.2c7-7.8,12.3-17.7,16-28.8C95,115,86,114,77,113.9V146.9z"/>
</g>
<defs><style>path {fill: #fff; }</style></defs>
</svg>
