<svg id="Layer_1" data-name="Layer 1" xmlns="http://www.w3.org/2000/svg" viewBox="0 0 60 60"><defs><style>.cls-1{fill:#fff;}</style></defs><path id="chat" class="cls-1" d="M39.09,45.71H7.54A4.52,4.52,0,0,1,3,41.16V9.88A4.51,4.51,0,0,1,7.54,5.34H52.46A4.51,4.51,0,0,1,57,9.88V41.29a4.52,4.52,0,0,1-4.54,4.55H47.91v8.82ZM5.34,9.88V41.29a2.19,2.19,0,0,0,2.2,2.21H40l.64.65,5.07,5.06V43.5h6.75a2.19,2.19,0,0,0,2.2-2.21V9.88a2.18,2.18,0,0,0-2.2-2.21H7.54A2.11,2.11,0,0,0,5.34,9.88ZM36.75,25.59A2.21,2.21,0,1,1,39,27.79a2.28,2.28,0,0,1-2.21-2.2Zm-9,0A2.21,2.21,0,1,1,30,27.79a2.19,2.19,0,0,1-2.21-2.2Zm-8.82,0a2.21,2.21,0,1,1,2.2,2.2,2.27,2.27,0,0,1-2.2-2.2Z"/></svg>