<svg id="Layer_1" data-name="Layer 1" xmlns="http://www.w3.org/2000/svg" viewBox="0 0 150 150"><defs><style>.cls-1{fill:none;}</style></defs><path id="chat" d="M97.13,113.06H21.19a10.87,10.87,0,0,1-10.94-10.94V26.81A10.87,10.87,0,0,1,21.19,15.87H129.31a10.87,10.87,0,0,1,10.94,10.94v75.63a10.87,10.87,0,0,1-10.94,10.94H118.37v21.25ZM15.88,26.81v75.63a5.27,5.27,0,0,0,5.31,5.31H99.31l1.57,1.56,12.18,12.19V107.75h16.25a5.27,5.27,0,0,0,5.32-5.31V26.81a5.27,5.27,0,0,0-5.32-5.31H21.19C18.38,21.19,15.88,23.69,15.88,26.81ZM91.5,64.63a5.32,5.32,0,1,1,5.31,5.31,5.48,5.48,0,0,1-5.31-5.31Zm-21.56,0a5.31,5.31,0,1,1,5.31,5.31,5.27,5.27,0,0,1-5.31-5.31Zm-21.25,0A5.31,5.31,0,1,1,54,69.94a5.48,5.48,0,0,1-5.31-5.31Z"/><rect class="cls-1" x="0.25" y="0.25" width="150" height="150"/></svg>