<?xml version="1.0" encoding="utf-8"?>
<!-- Generator: Adobe Illustrator 24.0.2, SVG Export Plug-In . SVG Version: 6.00 Build 0)  -->
<svg version="1.1" id="Layer_1" xmlns="http://www.w3.org/2000/svg" xmlns:xlink="http://www.w3.org/1999/xlink" x="0px" y="0px"
	 viewBox="0 0 48.6 45.8" style="enable-background:new 0 0 48.6 45.8;" xml:space="preserve">
<style type="text/css">
	.st0{fill-rule:evenodd;clip-rule:evenodd;fill:#ebc77f;}
</style>
<path class="st0" d="M35.1,3.7c3.3,1.9,2.4,12.2-3.8,23.2S16.8,44.1,13.5,42.3S11.1,30.1,17.3,19C23.5,8,31.8,1.8,35.1,3.7
	 M36.1,1.9C31.3-0.8,22.1,6.4,15.5,18s-7.9,23.3-3,26s14.1-4.5,20.6-16.1S41,4.6,36.1,1.9L36.1,1.9z M18.4,4.9L18.4,4.9
	c4.3,2.4,9.1,7.6,12.9,14c2.9,4.7,4.9,10,5.9,15.4c0.6,3.9,0,6.8-1.5,7.7c-1.2,0.7-3.1,0.4-5.4-0.9c-4.3-2.4-9.1-7.6-12.9-14
	C10.9,16.2,9.7,5.9,13,3.9C14.2,3.2,16.1,3.6,18.4,4.9 M19.4,3.1c-2.9-1.6-5.5-2-7.4-0.9C7.2,5,8.9,16.6,15.7,28.1
	c4.1,6.9,9.2,12.2,13.6,14.7c2.9,1.6,5.5,2,7.4,0.9c4.8-2.8,3.1-14.4-3.7-25.9C28.8,10.9,23.8,5.6,19.4,3.1L19.4,3.1z M42.7,18.7
	L42.7,18.7c2.4,1.3,3.7,2.9,3.7,4.3c0,3.8-9.5,8-22.1,8c-7.3,0-14.1-1.4-18.4-3.8c-2.4-1.4-3.7-2.9-3.7-4.3c0-1.8,2.2-3.7,5.8-5.2
	c5.2-1.9,10.7-2.9,16.3-2.8C31.6,14.9,38.4,16.4,42.7,18.7 M43.7,17c-4.4-2.5-11.4-4.1-19.4-4.1c-13.3,0-24.1,4.5-24.2,10
	c0,2.2,1.8,4.3,4.8,6C9.3,31.4,16.4,33,24.3,33c13.3,0,24.1-4.5,24.2-10C48.5,20.7,46.7,18.7,43.7,17L43.7,17z"/>
</svg>
