<svg xmlns="http://www.w3.org/2000/svg" width="53.532" height="37.068" viewBox="0 0 53.532 37.068">
  <defs>
    <style>
      .cls-1 {
        fill: #ebc77f;
        fill-rule: evenodd;
      }
    </style>
  </defs>
  <path class="cls-1" d="M905.447,989.806H886.919A12.35,12.35,0,0,0,882.8,1013.8v-2.22a10.286,10.286,0,0,1,4.117-19.715h18.528a10.293,10.293,0,1,1,0,20.585H888.978v2.06h16.469A12.352,12.352,0,1,0,905.447,989.806Zm-8.235,37.064H915.74a12.347,12.347,0,0,0,4.117-23.99v2.21a10.289,10.289,0,0,1-4.117,19.72H897.212a10.3,10.3,0,0,1,0-20.59h16.47v-2.06h-16.47A12.355,12.355,0,0,0,897.212,1026.87Z" transform="translate(-874.562 -989.812)"/>
</svg>
