<svg xmlns="http://www.w3.org/2000/svg" width="37.56" height="39.409" viewBox="0 0 37.56 39.409">
  <defs>
    <style>
      .cls-1 {
        fill: #fff;
        fill-rule: evenodd;
      }
    </style>
  </defs>
  <path class="cls-1" d="M1202.92,990.579a3.589,3.589,0,0,1,3.58,3.583v28.668a3.589,3.589,0,0,1-3.58,3.58h-26.83a3.583,3.583,0,0,1-3.58-3.58V994.162a3.582,3.582,0,0,1,3.58-3.583h26.83m0-1.792h-26.83a5.369,5.369,0,0,0-5.37,5.375v28.668a5.371,5.371,0,0,0,5.37,5.37h26.83a5.371,5.371,0,0,0,5.37-5.37V994.162a5.369,5.369,0,0,0-5.37-5.375h0Zm-19.68,7.166a1.792,1.792,0,1,1-1.79,1.792,1.791,1.791,0,0,1,1.79-1.792m0-1.791a3.584,3.584,0,1,0,3.58,3.583,3.586,3.586,0,0,0-3.58-3.583h0Zm12.53,1.791a1.792,1.792,0,1,1-1.79,1.792,1.788,1.788,0,0,1,1.79-1.792m0-1.791a3.584,3.584,0,1,0,3.57,3.583,3.58,3.58,0,0,0-3.57-3.583h0Zm-12.53,12.538a1.79,1.79,0,1,1-1.79,1.79,1.788,1.788,0,0,1,1.79-1.79m0-1.79a3.585,3.585,0,1,0,3.58,3.58,3.583,3.583,0,0,0-3.58-3.58h0Zm12.53,1.79a1.79,1.79,0,1,1-1.79,1.79,1.786,1.786,0,0,1,1.79-1.79m0-1.79a3.585,3.585,0,1,0,3.57,3.58,3.576,3.576,0,0,0-3.57-3.58h0Zm-12.53,12.54a1.79,1.79,0,1,1-1.79,1.79,1.788,1.788,0,0,1,1.79-1.79m0-1.79a3.585,3.585,0,1,0,3.58,3.58,3.583,3.583,0,0,0-3.58-3.58h0Zm12.53,1.79a1.79,1.79,0,1,1-1.79,1.79,1.786,1.786,0,0,1,1.79-1.79m0-1.79a3.585,3.585,0,1,0,3.57,3.58,3.576,3.576,0,0,0-3.57-3.58h0Z" transform="translate(-1170.72 -988.781)"/>
</svg>
