<svg xmlns="http://www.w3.org/2000/svg" width="44.44" height="37.625" viewBox="0 0 44.44 37.625">
  <defs>
    <style>
      .cls-1 {
        fill: #fff;
        fill-rule: evenodd;
      }
    </style>
  </defs>
  <path class="cls-1" d="M1555.81,991.1a1.713,1.713,0,0,1,1.71,1.71v30.771a1.709,1.709,0,0,1-1.71,1.71H1518.2a1.709,1.709,0,0,1-1.71-1.71V992.809a1.713,1.713,0,0,1,1.71-1.71h37.61m0-1.71H1518.2a3.419,3.419,0,0,0-3.42,3.42v30.771a3.418,3.418,0,0,0,3.42,3.42h37.61a3.418,3.418,0,0,0,3.42-3.42V992.809a3.419,3.419,0,0,0-3.42-3.42h0Zm-25.16,8.549a3.32,3.32,0,0,1,2.52,1.18,3.079,3.079,0,0,1,.64,2.032,11.724,11.724,0,0,0-.17,3.29,1.433,1.433,0,0,0,.1.29,1.522,1.522,0,0,1-.06.88,3.142,3.142,0,0,1-.51,1.38l-0.33.39-0.06.5a6.17,6.17,0,0,1-.46,1.58,5.374,5.374,0,0,0-.59,2.25,2.134,2.134,0,0,0,1.4,2.35,25.038,25.038,0,0,1,5.46,2.7,6.011,6.011,0,0,1,.11,1.71h-17.07a6.278,6.278,0,0,1,.12-1.79,23.209,23.209,0,0,1,5.27-2.61,2.106,2.106,0,0,0,1.38-2.33,5.286,5.286,0,0,0-.41-2.28,5.794,5.794,0,0,1-.46-1.58l-0.06-.5-0.34-.39a3.144,3.144,0,0,1-.5-1.38,1.53,1.53,0,0,1-.07-0.84c0.04-.11.08-0.23,0.13-0.41a12.249,12.249,0,0,0-.19-3.22,3.059,3.059,0,0,1,.64-2.022,3.289,3.289,0,0,1,2.49-1.178l1.02,0m0.06-1.71-1.14,0a4.955,4.955,0,0,0-3.78,1.841,4.7,4.7,0,0,0-.97,3.379,12.248,12.248,0,0,1,.2,2.55c-0.01.04-.03,0.08-0.04,0.12a2.877,2.877,0,0,0-.03,1.82,4.593,4.593,0,0,0,.89,2.16,7.561,7.561,0,0,0,.6,2.08,3.747,3.747,0,0,1,.25,1.56c0,0.64-.03.65-0.17,0.7a24.614,24.614,0,0,0-5.99,3c-0.83.56-.86,4.74,0.08,4.74h19.13c0.88,0,.94-4.1.02-4.7a26.9,26.9,0,0,0-6.14-3.06c-0.16-.05-0.18-0.06-0.18-0.71a3.849,3.849,0,0,1,.43-1.53,7.561,7.561,0,0,0,.6-2.08,4.593,4.593,0,0,0,.89-2.16,2.877,2.877,0,0,0-.03-1.82c-0.01-.04-0.03-0.08-0.04-0.11a12.293,12.293,0,0,1,.2-2.56,4.7,4.7,0,0,0-.97-3.379,4.979,4.979,0,0,0-3.81-1.843h0Zm23.39,5.132h-11.97v-1.712h11.97v1.712Zm0,5.13h-11.97v-1.71h11.97v1.71Zm0,5.13h-11.97v-1.71h11.97v1.71Z" transform="translate(-1514.78 -989.375)"/>
</svg>
