<?xml version="1.0" encoding="utf-8"?>
<!-- Generator: Adobe Illustrator 24.0.2, SVG Export Plug-In . SVG Version: 6.00 Build 0)  -->
<svg version="1.1" id="Layer_1" xmlns="http://www.w3.org/2000/svg" xmlns:xlink="http://www.w3.org/1999/xlink" x="0px" y="0px"
	 viewBox="0 0 68.5 44.9" style="enable-background:new 0 0 68.5 44.9;" xml:space="preserve">
<style type="text/css">
	.st0{fill-rule:evenodd;clip-rule:evenodd;fill:#ebc77f;}
</style>
<path id="Shape_167_copy" class="st0" d="M35.1,2h-2c-2.5,0-4.9,1.2-6.5,3.2c-1.3,1.6-1.9,3.7-1.7,5.8c0.3,1.4,0.4,2.9,0.3,4.4
	c0,0.1,0,0.1-0.1,0.2c-0.3,1-0.4,2.1,0,3.1c0.2,1.3,0.7,2.6,1.5,3.7c0.2,1.2,0.5,2.4,1,3.6c0.3,0.8,0.5,1.8,0.4,2.7
	c0,1.1,0,1.1-0.3,1.2c-3.6,1.2-7.1,3-10.3,5.1c-1.4,1-1.5,8.1,0.2,8.1h32.8c1.5,0,1.6-7,0-8c-3.3-2.2-6.8-4-10.5-5.3
	c-0.3-0.1-0.3-0.1-0.3-1.2c0.1-0.9,0.3-1.8,0.7-2.6c0.5-1.1,0.9-2.3,1-3.6c0.8-1.1,1.3-2.4,1.5-3.7c0.3-1,0.3-2.1,0-3.1
	c0-0.1-0.1-0.1-0.1-0.2c0-1.5,0.1-2.9,0.3-4.4c0.2-2.1-0.4-4.1-1.7-5.8C40,3.2,37.6,2,35.1,2L35.1,2L35.1,2z M66.4,32.6
	c-2.7-1.8-5.5-3.2-8.5-4.3c-0.2-0.1-0.2-0.1-0.2-1c0-0.7,0.2-1.5,0.6-2.1c0.4-0.9,0.7-1.9,0.8-2.9c0.7-0.9,1.1-1.9,1.2-3
	c0.3-0.8,0.2-1.7,0-2.5c0-0.1,0-0.1-0.1-0.2c0-1.2,0.1-2.4,0.3-3.5c0.2-1.7-0.3-3.4-1.3-4.7c-1.3-1.6-3.2-2.5-5.3-2.6h-1.6
	c-2,0-4,1-5.2,2.6c-1,1.3-1.5,3-1.4,4.7c0.2,1.2,0.3,2.4,0.3,3.5c0,0.1,0,0.1-0.1,0.2c-0.3,0.8-0.3,1.7,0,2.5c0.1,1.1,0.6,2.1,1.2,3
	c0.1,1,0.4,2,0.8,2.9c0.3,0.7,0.4,1.4,0.3,2.1c0,0.9,0,0.9-0.2,1C47,28.7,46,29.1,45,29.6c0.7,0.3,1.5,0.7,2.3,1.1
	c0.6-0.2,1.1-0.4,1.4-0.5c1.6-0.5,1.6-2,1.6-2.8c0-1-0.1-2-0.5-3c-0.3-0.7-0.6-1.5-0.7-2.3L49,21.5l-0.4-0.4
	c-0.4-0.6-0.7-1.4-0.8-2.1c-0.2-0.4-0.2-0.9-0.1-1.4c0.1-0.2,0.1-0.3,0.2-0.5c0.1-1.4,0-2.9-0.3-4.3c-0.1-1.1,0.3-2.2,1-3.1
	c0.9-1.1,2.3-1.8,3.8-1.8h1.5c1.5,0,2.9,0.7,3.8,1.8c0.7,0.9,1,2,1,3.1c-0.3,1.4-0.4,2.9-0.2,4.4c0,0.1,0.1,0.3,0.1,0.4
	c0.1,0.5,0.1,1-0.1,1.4c-0.1,0.8-0.4,1.5-0.8,2.1l-0.4,0.4l-0.1,0.6c-0.1,0.8-0.3,1.6-0.7,2.3c-0.5,0.9-0.7,1.9-0.8,2.9
	c0,0.9,0,2.3,1.6,2.8c2.7,1,5.4,2.3,7.8,3.9c0.3,1,0.3,2,0.2,3.1H53.5c0.1,0.6,0.1,1.3,0.1,2h12.7C67.6,39.1,67.7,33.4,66.4,32.6
	L66.4,32.6z M0.9,32.6c2.7-1.8,5.5-3.2,8.5-4.3c0.2-0.1,0.2-0.1,0.2-1c0-0.7-0.3-1.5-0.6-2.1c-0.4-0.9-0.7-1.9-0.8-2.9
	c-0.7-0.9-1.1-1.9-1.2-3c-0.3-0.8-0.2-1.7,0-2.5c0-0.1,0-0.1,0.1-0.2c0-1.2-0.1-2.4-0.3-3.5c-0.2-1.7,0.3-3.4,1.3-4.7
	c1.3-1.6,3.2-2.5,5.3-2.6h1.6c2,0,4,1,5.2,2.6c1,1.3,1.5,3,1.4,4.7c-0.2,1.2-0.3,2.4-0.3,3.5c0,0.1,0,0.1,0.1,0.2
	c0.3,0.8,0.3,1.7,0,2.5c-0.1,1.1-0.6,2.1-1.2,3c-0.1,1-0.4,2-0.8,2.9c-0.3,0.7-0.4,1.4-0.3,2.1c0,0.9,0,0.9,0.2,1
	c1.1,0.3,2.1,0.7,3.1,1.2c-0.7,0.3-1.5,0.7-2.3,1.1c-0.6-0.2-1.1-0.4-1.4-0.5c-1.6-0.5-1.6-2-1.6-2.8c0-1,0.1-2,0.5-3
	c0.3-0.7,0.6-1.5,0.7-2.3l0.1-0.6l0.4-0.4c0.4-0.6,0.7-1.4,0.8-2.1c0.2-0.4,0.2-0.9,0.1-1.4c-0.1-0.2-0.1-0.3-0.2-0.5
	c-0.1-1.4,0-2.9,0.3-4.3c0.1-1.1-0.3-2.2-1-3.1c-0.9-1.1-2.3-1.8-3.8-1.8h-1.5c-1.5,0-2.9,0.7-3.8,1.8c-0.7,0.9-1,2-1,3.1
	C9,14.2,9.1,15.7,9,17.2c0,0.1-0.1,0.3-0.1,0.4c-0.1,0.5-0.1,1,0.1,1.4c0.1,0.8,0.4,1.5,0.8,2.1l0.4,0.4l0.1,0.6
	c0.1,0.8,0.3,1.6,0.7,2.3c0.5,0.9,0.7,1.9,0.8,2.9c0,0.9,0,2.3-1.6,2.8c-2.7,1-5.4,2.3-7.8,3.9c-0.3,1-0.3,2-0.2,3.1h11.8
	c-0.1,0.6-0.1,1.3-0.1,2H0.9C-0.3,39.1-0.4,33.4,0.9,32.6z"/>
</svg>
