<?xml version="1.0" encoding="utf-8"?>
<!-- Generator: Adobe Illustrator 24.0.2, SVG Export Plug-In . SVG Version: 6.00 Build 0)  -->
<svg version="1.1" id="Layer_1" xmlns="http://www.w3.org/2000/svg" xmlns:xlink="http://www.w3.org/1999/xlink" x="0px" y="0px"
	 viewBox="0 0 49.9 44.2" style="enable-background:new 0 0 49.9 44.2;" xml:space="preserve">
<style type="text/css">
	.st0{fill-rule:evenodd;clip-rule:evenodd;fill:#ebc77f;}
</style>
<path class="st0" d="M47.9,3v38H2V3H47.9 M49.9,1H0v42h50V1L49.9,1z M10,11H2V9h8V11z M10,19H2v-2h8V19z M10,27H2v-2h8V27z M40,23
	H10v-2h30V23z M10,41H8V3h2V41L10,41z M42,41h-2V3h2V41L42,41z M10,35H2v-2h8V35z M48,11h-8V9h8V11L48,11z M48,19h-8v-2h8V19z
	 M48,27h-8v-2h8V27z M48,35h-8v-2h8V35z"/>
</svg>
