<?xml version="1.0" encoding="utf-8"?>
<!-- Generator: Adobe Illustrator 24.0.2, SVG Export Plug-In . SVG Version: 6.00 Build 0)  -->
<svg version="1.1" id="Layer_1" xmlns="http://www.w3.org/2000/svg" xmlns:xlink="http://www.w3.org/1999/xlink" x="0px" y="0px"
	 viewBox="0 0 49.5 41" style="enable-background:new 0 0 49.5 41;" xml:space="preserve">
<style type="text/css">
	.st0{fill-rule:evenodd;clip-rule:evenodd;fill:#FFFFFF;}
</style>
<path class="st0" d="M12.4,9.2c1.1,0,2.1,0.9,2.1,2.1c0,1.1-0.9,2.1-2.1,2.1c-1.1,0-2.1-0.9-2.1-2.1C10.3,10.2,11.2,9.3,12.4,9.2
	 M12.4,7.2c-2.3,0-4.1,1.8-4.1,4.1s1.8,4.1,4.1,4.1c2.3,0,4.1-1.8,4.1-4.1c0,0,0,0,0,0C16.5,9,14.6,7.2,12.4,7.2L12.4,7.2z
	 M45.3,3.1c1.1,0,2.1,0.9,2.1,2.1v30.9c0,1.1-0.9,2.1-2.1,2.1H4.1c-1.1,0-2.1-0.9-2.1-2.1V5.1C2.1,4,3,3.1,4.1,3.1H45.3 M45.3,1H4.1
	C1.8,1,0,2.9,0,5.1v30.9c0,2.3,1.9,4.1,4.1,4.1h41.2c2.3,0,4.1-1.8,4.1-4.1c0,0,0,0,0,0V5.1C49.5,2.9,47.6,1,45.3,1
	C45.3,1,45.3,1,45.3,1L45.3,1z M12.4,21.6L2.1,31.9v2.9l10.3-10.3l13.6,13.6h2.9L12.4,21.6z M47.4,27.8L33,13.4L18.6,27.8v2.9
	L33,16.3l14.4,14.4V27.8z"/>
</svg>
