<?xml version="1.0" encoding="utf-8"?>
<!-- Generator: Adobe Illustrator 24.0.2, SVG Export Plug-In . SVG Version: 6.00 Build 0)  -->
<svg version="1.1" id="Layer_1" xmlns="http://www.w3.org/2000/svg" xmlns:xlink="http://www.w3.org/1999/xlink" x="0px" y="0px"
	 viewBox="0 0 47.9 45.3" style="enable-background:new 0 0 47.9 45.3;" xml:space="preserve">
<style type="text/css">
	.st0{fill-rule:evenodd;clip-rule:evenodd;fill:#FFFFFF;}
</style>
<path class="st0" d="M44,0.6H4c-2.2,0-4,1.8-4,4v28c0,2.2,1.8,4,4,4h28l7.9,7.9v-7.9h4c2.2,0,4-1.8,4-4v-28C48,2.4,46.2,0.6,44,0.6z
	 M46,32.6c0,1.1-0.9,2-2,2h-6v5.1l-4.5-4.5l-0.6-0.6H4c-1.1,0-2-0.9-2-2v-28c0-1.1,0.9-2,2-2h40c1.1,0,2,0.9,2,2V32.6z M24,16.6
	c-1.1,0-2,0.9-2,2c0,1.1,0.9,2,2,2c1.1,0,2-0.9,2-2C26,17.5,25.1,16.6,24,16.6C24,16.6,24,16.6,24,16.6L24,16.6z M32,16.6
	c-1.1,0-2,0.9-2,2c0,1.1,0.9,2,2,2c1.1,0,2-0.9,2-2C34,17.5,33.1,16.6,32,16.6z M16.2,16.6c-1.1,0-2,0.9-2,2c0,1.1,0.9,2,2,2
	c1.1,0,2-0.9,2-2c0,0,0,0,0,0C18.2,17.5,17.3,16.6,16.2,16.6C16.2,16.6,16.2,16.6,16.2,16.6L16.2,16.6z"/>
</svg>
