<?xml version="1.0" encoding="utf-8"?>
<!-- Generator: Adobe Illustrator 24.0.2, SVG Export Plug-In . SVG Version: 6.00 Build 0)  -->
<svg version="1.1" id="Layer_1" xmlns="http://www.w3.org/2000/svg" xmlns:xlink="http://www.w3.org/1999/xlink" x="0px" y="0px"
	 viewBox="0 0 36.5 36.8" style="enable-background:new 0 0 36.5 36.8;" xml:space="preserve">
<style type="text/css">
	.st0{fill-rule:evenodd;clip-rule:evenodd;fill:#ebc77f;}
</style>
<path id="Shape_228_copy" class="st0" d="M21.5,22l4.4-6c0.2-0.2,0.1-0.6-0.1-0.7c-0.1-0.1-0.2-0.1-0.3-0.1H15.1
	c-0.3,0-0.5,0.2-0.5,0.5c0,0,0,0,0,0v0.8c0,0.3,0.2,0.5,0.5,0.5c0,0,0,0,0,0h6.9c0.3,0,0.5,0.2,0.5,0.5c0,0.1,0,0.2-0.1,0.3
	l-3.8,5.3l1.3,0.3c1.7,0.4,3.2,1.6,4,3.3c0.6,1.3,0.7,2.8,0.2,4.1c-0.6,1.6-1.9,2.8-3.5,3.4c-0.4,0.2-0.9,0.3-1.3,0.3
	c0.2,0.6,0.5,1.2,0.8,1.7c0.3-0.1,0.6-0.2,0.9-0.3c2.1-0.8,3.8-2.4,4.6-4.4c0.8-1.8,0.7-3.9-0.2-5.7C24.6,24.2,23.2,22.8,21.5,22z
	 M31.5,31.5c-0.2-0.2-0.2-0.5,0-0.8c3.2-3.4,5-7.9,5-12.5C36.5,8.2,28.4,0,18.3,0S0,8.2,0,18.3c0,0.6,0,1.1,0.1,1.7
	c0.6,6.4,4.5,12,10.3,14.8c2.4,1.1,6.4,2.4,9.9,1.4C20.1,36,20,35.9,20,35.8c-0.2-0.2-0.3-0.5-0.4-0.8c-0.2-0.1-0.3-0.3-0.4-0.5
	c-2.8,0.3-5.6-0.2-8.1-1.4C6,30.5,2.5,25.5,1.9,19.8c-0.1-0.5-0.1-1-0.1-1.5c0-9.1,7.3-16.4,16.4-16.4s16.4,7.3,16.4,16.4
	c-0.1,4.6-2.1,9.1-5.5,12.2l-0.3,0.3c-0.2,0.2-0.2,0.5,0,0.8c0,0,0,0,0,0l5.1,5.1c0.2,0.2,0.6,0.2,0.8,0c0,0,0,0,0,0l0.6-0.6
	c0.2-0.2,0.2-0.5,0-0.7c0,0,0,0,0,0L31.5,31.5z"/>
</svg>
