<svg xmlns="http://www.w3.org/2000/svg" width="26.35" height="26.344" viewBox="0 0 26.35 26.344">
  <defs>
    <style>
      .cls-1 {
        fill: #ffffff;
        fill-rule: evenodd;
      }
    </style>
  </defs>
  <path id="Shape_1_copy" data-name="Shape 1 copy" class="cls-1" d="M1682.64,62.185h-5.27V52.959h5.27v9.226Zm10.16-14.112-11.86-11.862a1.325,1.325,0,0,0-1.87,0l-11.86,11.862a1.32,1.32,0,0,0,1.87,1.864l0.38-.386V60.867a1.319,1.319,0,0,0,1.32,1.318h3.95V59.549h-2.63V46.915l7.91-7.908,7.9,7.908V59.549h-2.63v2.636h3.95a1.319,1.319,0,0,0,1.32-1.318V49.551l0.39,0.386a1.313,1.313,0,0,0,1.86,0A1.326,1.326,0,0,0,1692.8,48.073Z" transform="translate(-1666.84 -35.844)"/>
</svg>
