<svg xmlns="http://www.w3.org/2000/svg" width="23.85" height="27" viewBox="0 0 23.85 27">
  <defs>
    <style>
      .cls-1 {
        fill: #ffffff;
        fill-rule: evenodd;
      }
    </style>
  </defs>
  <path class="cls-1" d="M1779.78,55.743V47.406a8.816,8.816,0,0,0-7.27-8.676V37.549a1.041,1.041,0,0,0-1.04-1.038h-1.04a1.033,1.033,0,0,0-1.03,1.038v1.185a8.814,8.814,0,0,0-7.26,8.673v8.337l-3.12,2.948v1.682h23.86V58.691Zm-8.83,7.749a2.076,2.076,0,0,0,2.08-2.075h-4.15A2.074,2.074,0,0,0,1770.95,63.493Z" transform="translate(-1759.03 -36.5)"/>
</svg>
