<svg id="Layer_1" data-name="Layer 1" xmlns="http://www.w3.org/2000/svg" viewBox="0 0 60 60"><defs><style>.cls-1{fill:#fff;}</style></defs><path id="chat_s" data-name="chat s" class="cls-1" d="M47.91,54.66h0l-8.82-8.95H7.54A4.52,4.52,0,0,1,3,41.16V9.88A4.51,4.51,0,0,1,7.54,5.34H52.46A4.51,4.51,0,0,1,57,9.88V41.29a4.52,4.52,0,0,1-4.54,4.55H47.91v8.82ZM39,23.38a2.19,2.19,0,0,0-2.21,2.21A2.28,2.28,0,0,0,39,27.79a2.19,2.19,0,0,0,2.2-2.2h0A2.11,2.11,0,0,0,39,23.38Zm-9,0a2.21,2.21,0,1,0,2.21,2.21A2.12,2.12,0,0,0,30,23.38Zm-8.7,0a2.21,2.21,0,1,0,2.21,2.21,2.18,2.18,0,0,0-2.21-2.21Z"/></svg>